<svg xmlns="http://www.w3.org/2000/svg" width="510" height="528" viewBox="-208.75 -237.33 510 528">
<rect x="-208.75" y="-237.33" width="510" height="528" fill="#ffffff"/>
<path d="M 0 -213.33 L 92.38 -160 L 0 -106.67 L -92.38 -160 Z" fill="#f0b46a" stroke="#a56426" stroke-width="4.8" stroke-linejoin="round"/>
<path d="M -184.75 0 L -184.75 106.67 L -92.38 160 L -92.38 53.33 Z" fill="#df9440" stroke="#a56426" stroke-width="4.8" stroke-linejoin="round"/>
<path d="M -184.75 -106.67 L -184.75 0 L -92.38 53.33 L -92.38 -53.33 Z" fill="#df9440" stroke="#a56426" stroke-width="4.8" stroke-linejoin="round"/>
<path d="M -92.38 -160 L 0 -106.67 L -92.38 -53.33 L -184.75 -106.67 Z" fill="#f0b46a" stroke="#a56426" stroke-width="4.8" stroke-linejoin="round"/>
<path d="M 92.38 -160 L 184.75 -106.67 L 92.38 -53.33 L 0 -106.67 Z" fill="#f0b46a" stroke="#a56426" stroke-width="4.8" stroke-linejoin="round"/>
<path d="M -92.38 53.33 L -92.38 160 L 0 213.33 L 0 106.67 Z" fill="#df9440" stroke="#a56426" stroke-width="4.8" stroke-linejoin="round"/>
<path d="M 277.13 53.33 L 277.13 160 L 184.75 213.33 L 184.75 106.67 Z" fill="#c87a30" stroke="#a56426" stroke-width="4.8" stroke-linejoin="round"/>
<path d="M 92.38 -53.33 L 92.38 53.33 L 0 106.67 L 0 0 Z" fill="#c87a30" stroke="#a56426" stroke-width="4.8" stroke-linejoin="round"/>
<path d="M -92.38 -53.33 L -92.38 53.33 L 0 106.67 L 0 0 Z" fill="#df9440" stroke="#a56426" stroke-width="4.8" stroke-linejoin="round"/>
<path d="M 0 -106.67 L 92.38 -53.33 L 0 0 L -92.38 -53.33 Z" fill="#f0b46a" stroke="#a56426" stroke-width="4.8" stroke-linejoin="round"/>
<path d="M 277.13 -53.33 L 277.13 53.33 L 184.75 106.67 L 184.75 0 Z" fill="#c87a30" stroke="#a56426" stroke-width="4.8" stroke-linejoin="round"/>
<path d="M 92.38 -53.33 L 92.38 53.33 L 184.75 106.67 L 184.75 0 Z" fill="#df9440" stroke="#a56426" stroke-width="4.8" stroke-linejoin="round"/>
<path d="M 184.75 -106.67 L 277.13 -53.33 L 184.75 0 L 92.38 -53.33 Z" fill="#f0b46a" stroke="#a56426" stroke-width="4.8" stroke-linejoin="round"/>
<path d="M 184.75 106.67 L 184.75 213.33 L 92.38 266.67 L 92.38 160 Z" fill="#c87a30" stroke="#a56426" stroke-width="4.8" stroke-linejoin="round"/>
<path d="M 0 106.67 L 0 213.33 L 92.38 266.67 L 92.38 160 Z" fill="#df9440" stroke="#a56426" stroke-width="4.8" stroke-linejoin="round"/>
<path d="M 92.38 53.33 L 184.75 106.67 L 92.38 160 L 0 106.67 Z" fill="#f0b46a" stroke="#a56426" stroke-width="4.8" stroke-linejoin="round"/>
</svg>